<svg xmlns="http://www.w3.org/2000/svg" viewBox="0 0 500 500">  <!-- Background -->  <defs>    <radialGradient id="bgGradient9" cx="50%" cy="50%" r="50%" fx="50%" fy="50%">      <stop offset="0%" stop-color="#0D0221" />      <stop offset="70%" stop-color="#0C0118" />      <stop offset="100%" stop-color="#07000E" />    </radialGradient>    <!-- Planet gradient -->    <radialGradient id="planetGradient" cx="50%" cy="50%" r="50%" fx="50%" fy="50%">      <stop offset="0%" stop-color="#8E54E9" />      <stop offset="100%" stop-color="#4776E6" />    </radialGradient>    <!-- Ring gradient -->    <linearGradient id="ringGradient" x1="0%" y1="0%" x2="100%" y2="0%">      <stop offset="0%" stop-color="#4776E6" stop-opacity="0" />      <stop offset="50%" stop-color="#8E54E9" stop-opacity="0.7" />      <stop offset="100%" stop-color="#4776E6" stop-opacity="0" />    </linearGradient>    <!-- Glow effect -->    <filter id="glow9" x="-20%" y="-20%" width="140%" height="140%">      <feGaussianBlur stdDeviation="5" result="blur" />      <feComposite in="SourceGraphic" in2="blur" operator="over" />    </filter>    <!-- Center glow -->    <radialGradient id="centerGlow" cx="50%" cy="50%" r="50%" fx="50%" fy="50%">      <stop offset="0%" stop-color="#FFFFFF" stop-opacity="0.8" />      <stop offset="50%" stop-color="#8E54E9" stop-opacity="0.4" />      <stop offset="100%" stop-color="#4776E6" stop-opacity="0.1" />    </radialGradient>  </defs>  <!-- Cosmic background -->  <circle cx="250" cy="250" r="240" fill="url(#bgGradient9)" />  <!-- Star background -->  <g fill="#FFFFFF">    <circle cx="120" cy="120" r="1" />    <circle cx="150" cy="180" r="0.7" />    <circle cx="200" cy="120" r="1.2" />    <circle cx="220" cy="170" r="0.8" />    <circle cx="300" cy="120" r="1" />    <circle cx="350" cy="150" r="0.7" />    <circle cx="380" cy="190" r="1.2" />    <circle cx="100" cy="250" r="0.9" />    <circle cx="150" cy="300" r="1.1" />    <circle cx="180" cy="350" r="0.8" />    <circle cx="250" cy="380" r="1" />    <circle cx="300" cy="350" r="0.7" />    <circle cx="350" cy="300" r="1.2" />    <circle cx="400" cy="250" r="0.9" />    <circle cx="130" cy="400" r="1.1" />    <circle cx="370" cy="400" r="0.8" />    <circle cx="400" cy="370" r="1" />    <!-- Brighter stars -->    <circle cx="80" cy="80" r="1.5" fill="#FFFFFF" filter="url(#glow9)" opacity="0.8" />    <circle cx="420" cy="120" r="1.5" fill="#FFFFFF" filter="url(#glow9)" opacity="0.8" />    <circle cx="100" cy="420" r="1.5" fill="#FFFFFF" filter="url(#glow9)" opacity="0.8" />    <circle cx="400" cy="400" r="1.5" fill="#FFFFFF" filter="url(#glow9)" opacity="0.8" />  </g>  <!-- Main planetary system -->  <g transform="translate(250, 250)">    <!-- Planet rings - tilted ellipses -->    <ellipse cx="0" cy="0" rx="180" ry="50" transform="rotate(-20)" fill="none" stroke="url(#ringGradient)" stroke-width="4" />    <ellipse cx="0" cy="0" rx="160" ry="45" transform="rotate(-20)" fill="none" stroke="url(#ringGradient)" stroke-width="2" />    <!-- Main planet -->    <circle cx="0" cy="0" r="100" fill="url(#planetGradient)" filter="url(#glow9)" />    <!-- Three satellites - representing three pools -->    <g>      <!-- Satellite 1 -->      <circle cx="0" cy="-140" r="20" fill="#4776E6" filter="url(#glow9)" />      <!-- Satellite orbit -->      <circle cx="0" cy="0" r="140" fill="none" stroke="#4776E6" stroke-width="1" stroke-dasharray="2,4" opacity="0.5" />      <!-- Satellite 2 -->      <circle cx="121" cy="70" r="20" fill="#8E54E9" filter="url(#glow9)" />      <!-- Satellite orbit -->      <circle cx="0" cy="0" r="140" fill="none" stroke="#8E54E9" stroke-width="1" stroke-dasharray="2,4" opacity="0.5" />      <!-- Satellite 3 -->      <circle cx="-121" cy="70" r="20" fill="#654ea3" filter="url(#glow9)" />      <!-- Satellite orbit -->      <circle cx="0" cy="0" r="140" fill="none" stroke="#654ea3" stroke-width="1" stroke-dasharray="2,4" opacity="0.5" />    </g>    <!-- Planet surface texture -->    <circle cx="-40" cy="-30" r="25" fill="#654ea3" opacity="0.4" />    <circle cx="20" cy="40" r="30" fill="#654ea3" opacity="0.3" />    <circle cx="45" cy="-20" r="15" fill="#654ea3" opacity="0.5" />    <!-- Central bright glow, replacing D shape -->    <circle cx="0" cy="0" r="35" fill="url(#centerGlow)" filter="url(#glow9)" />    <!-- Star ray effect -->    <g opacity="0.7">      <line x1="-30" y1="-30" x2="30" y2="30" stroke="#FFFFFF" stroke-width="1.5" />      <line x1="30" y1="-30" x2="-30" y2="30" stroke="#FFFFFF" stroke-width="1.5" />      <line x1="0" y1="-40" x2="0" y2="40" stroke="#FFFFFF" stroke-width="1.5" />      <line x1="-40" y1="0" x2="40" y2="0" stroke="#FFFFFF" stroke-width="1.5" />    </g>  </g>  <!-- Decorative cosmic dust -->  <g opacity="0.3">    <circle cx="180" cy="170" r="3" fill="#8E54E9" />    <circle cx="190" cy="185" r="2" fill="#8E54E9" />    <circle cx="175" cy="195" r="1" fill="#8E54E9" />    <circle cx="320" cy="170" r="3" fill="#4776E6" />    <circle cx="310" cy="185" r="2" fill="#4776E6" />    <circle cx="325" cy="195" r="1" fill="#4776E6" />    <circle cx="180" cy="330" r="3" fill="#654ea3" />    <circle cx="190" cy="315" r="2" fill="#654ea3" />    <circle cx="175" cy="305" r="1" fill="#654ea3" />    <circle cx="320" cy="330" r="3" fill="#8E54E9" />    <circle cx="310" cy="315" r="2" fill="#8E54E9" />    <circle cx="325" cy="305" r="1" fill="#8E54E9" />  </g></svg> 